<svg width="88" height="57" viewBox="0 0 88 57" version="1.1" xmlns="http://www.w3.org/2000/svg" xmlns:xlink="http://www.w3.org/1999/xlink">
<title>noun_1041996_cc</title>
<desc>Created using Figma</desc>
<g id="Canvas" transform="translate(-877 3772)">
<g id="noun_1041996_cc">
<g id="Vector">
<use xlink:href="#path0_fill" transform="translate(877.708 -3772)" fill="#E7E7E7"/>
</g>
</g>
</g>
<defs>
<path id="path0_fill" d="M 77.584 9.15527e-08L 9 9.15527e-08C 4.037 9.15527e-08 1.83105e-07 4.037 1.83105e-07 9L 1.83105e-07 47.543C 1.83105e-07 52.506 4.037 56.543 9 56.543L 77.584 56.543C 82.547 56.543 86.584 52.506 86.584 47.543L 86.584 9C 86.584 4.037 82.547 9.15527e-08 77.584 9.15527e-08ZM 59.21 26.335L 82.306 7.424C 82.472 7.922 82.584 8.445 82.584 8.999L 82.584 47.542C 82.584 48.026 82.493 48.484 82.364 48.928L 59.21 26.335ZM 77.584 4C 78.313 4 79.002 4.165 79.628 4.447L 43.292 34.199L 6.956 4.447C 7.582 4.165 8.27 4 9 4L 77.584 4ZM 4.22 48.928C 4.091 48.485 4 48.027 4 47.542L 4 9C 4 8.446 4.112 7.923 4.278 7.425L 27.374 26.336L 4.22 48.928ZM 9 52.542C 8.204 52.542 7.462 52.338 6.793 52.006L 30.489 28.885L 43.292 39.369L 56.095 28.886L 79.791 52.007C 79.122 52.339 78.38 52.543 77.584 52.543L 9 52.543L 9 52.542Z"/>
</defs>
</svg>
