<svg width="372" height="400" viewBox="0 0 372 400" xmlns="http://www.w3.org/2000/svg" xmlns:xlink="http://www.w3.org/1999/xlink"><title>ReactFest Logo</title><desc>Created using Figma</desc><use xlink:href="#a" transform="scale(-1 1) rotate(18 -608.828 -1014.805)" fill="#37B75D"/><use xlink:href="#a" transform="rotate(18 -422.553 161.289)" fill="#37B75D"/><use xlink:href="#b" transform="translate(7.95 16.63)" fill="#37B75D"/><use xlink:href="#c" transform="translate(145.41 204.62)" fill="#37B75D"/><use xlink:href="#d" transform="translate(338.3 119.61)" fill="#37B75D"/><use xlink:href="#d" transform="translate(.19 118.61)" fill="#37B75D"/><use xlink:href="#d" transform="translate(338.3 229.47)" fill="#37B75D"/><use xlink:href="#d" transform="translate(65.6 321.48)" fill="#37B75D"/><use xlink:href="#d" transform="translate(.19 229.47)" fill="#37B75D"/><use xlink:href="#d" transform="rotate(35 101.87 460.718)" fill="#37B75D"/><use xlink:href="#a" transform="scale(-1 1) rotate(55 -191.086 -238.327)" fill="#37B75D"/><use xlink:href="#a" transform="rotate(54 -9.334 116.15)" fill="#37B75D"/><use xlink:href="#d" transform="translate(168.69)" fill="#37B75D"/><use xlink:href="#e" transform="translate(182 32.15)" fill="#37B75D"/><use xlink:href="#d" transform="scale(1 -1) rotate(35 706.919 271.01)" fill="#37B75D"/><use xlink:href="#d" transform="scale(-1 1) rotate(35 -83.45 -120.957)" fill="#37B75D"/><use xlink:href="#f" transform="rotate(90 84.705 232.735)" fill="#FFF"/><use xlink:href="#f" transform="rotate(145 105.083 185.517)" fill="#FFF"/><use xlink:href="#f" transform="rotate(35 17.807 387.916)" fill="#FFF"/><g transform="translate(1899 2378)"><use xlink:href="#g" transform="rotate(13 8004.626 -8727.717)" fill="#4A4A4A"/></g><g transform="translate(1899 2378)"><use xlink:href="#h" transform="scale(-1 1) rotate(13 9709.194 6316.95)" fill="#4A4A4A"/></g><g transform="translate(1899 2378)"><use xlink:href="#d" transform="translate(-1730.31 -2200.63)" fill="#FFF"/></g><g><g transform="translate(56.6 405.28)"><use xlink:href="#i"/><use xlink:href="#j"/><use xlink:href="#k"/><use xlink:href="#l"/><use xlink:href="#m"/><use xlink:href="#n"/><use xlink:href="#o"/><use xlink:href="#p"/><use xlink:href="#q"/></g></g><defs><path id="a" d="M0 0h332.565v6.651H0V0z"/><path id="b" d="M177.368 355.736c98.51 0 178.368-79.858 178.368-178.368h-2c0 97.405-78.963 176.368-176.368 176.368v2zm178.368-178.368C355.736 78.858 275.878-1 177.368-1v2c97.405 0 176.368 78.963 176.368 176.368h2zM177.368-1C78.858-1-1 78.858-1 177.368h2C1 79.963 79.963 1 177.368 1v-2zM-1 177.368c0 98.51 79.858 178.368 178.368 178.368v-2C79.963 353.736 1 274.773 1 177.368h-2z"/><path id="c" d="M39.908 0l3.424-.724h-6.849L39.908 0zm39.907 188.8v3.5h4.318l-.893-4.224-3.424.724zM0 188.8l-3.424-.724-.893 4.224H0v-3.5zM36.483.724l39.908 188.8 6.849-1.448L43.332-.724 36.483.724zM79.816 185.3H0v7h79.816v-7zm-76.392 4.224L43.332.724 36.483-.724l-39.907 188.8 6.848 1.448z"/><path id="d" d="M16.628 33.257c9.184 0 16.629-7.445 16.629-16.629C33.257 7.445 25.812 0 16.628 0 7.445 0 0 7.445 0 16.628c0 9.184 7.445 16.629 16.628 16.629z"/><path id="e" d="M0 0h6.651v161.848H0V0z"/><path id="f" d="M44.342 270.552c8.092 0 15.085-4.924 20.794-12.169 5.58-7.12 10.712-17.551 14.83-29.871 8.131-24.448 13.206-58.419 13.218-95.486h-9c.012 36.401-4.84 68.943-12.757 92.64-3.907 11.754-8.329 20.804-13.36 27.147-4.9 6.218-9.572 8.739-13.725 8.739v9zm48.842-137.526c-.012-37.067-5.087-71.038-13.218-95.487-4.118-12.32-9.25-22.75-14.83-29.87C59.427.423 52.434-4.5 44.342-4.5v9c4.153 0 8.825 2.52 13.726 8.74 5.03 6.342 9.452 15.392 13.36 27.145 7.916 23.698 12.768 56.24 12.756 92.641h9zM44.342-4.5C36.25-4.5 29.257.424 23.548 7.668c-5.58 7.12-10.712 17.552-14.83 29.871C.587 61.988-4.488 95.96-4.5 133.026h9c-.012-36.401 4.84-68.943 12.756-92.64 3.908-11.754 8.33-20.804 13.36-27.147C35.517 7.021 40.19 4.5 44.342 4.5v-9zM-4.5 133.026c.012 37.067 5.087 71.038 13.218 95.486 4.118 12.32 9.25 22.751 14.83 29.871 5.709 7.245 12.702 12.169 20.794 12.169v-9c-4.153 0-8.825-2.521-13.726-8.739-5.03-6.343-9.452-15.393-13.36-27.147C9.34 201.969 4.488 169.427 4.5 133.026h-9z"/><path id="g" d="M0 0l8.284.103c.773 5.333 1.16 9.215 1.16 11.645 0 2.43-.303 5.905-.908 10.423H0V0z"/><path id="h" d="M0 0h7.427c.627 4.365.94 7.72.94 10.067 0 2.346-.313 6.38-.94 12.104H0V0z"/></defs></svg>
