<svg width="23" height="18" viewBox="0 0 23 18" version="1.1" xmlns="http://www.w3.org/2000/svg" xmlns:xlink="http://www.w3.org/1999/xlink">
<title>Fill 1</title>
<desc>Created using Figma</desc>
<g id="Canvas" transform="translate(2831 -3151)">
<g id="Fill 1">
<use xlink:href="#path0_stroke" transform="translate(-2830 3152)" fill="#FFFFFF"/>
</g>
</g>
<defs>
<path id="path0_stroke" d="M 19.4475 0.301674L 19.9239 0.4532L 20.3233 -0.802761L 19.1914 -0.127772L 19.4475 0.301674ZM 16.8419 1.30267L 16.4764 1.64388L 16.6662 1.84716L 16.939 1.79315L 16.8419 1.30267ZM 9.84974 5.06492L 9.82455 5.56429L 10.4864 5.59768L 10.3368 4.95208L 9.84974 5.06492ZM 1.39237 0.755069L 1.78072 0.440139L 1.32372 -0.123421L 0.959805 0.504294L 1.39237 0.755069ZM 2.6622 6.26228L 2.6463 6.76203L 4.38482 6.81735L 2.94106 5.84727L 2.6622 6.26228ZM 0.803687 5.7463L 1.04749 5.30977L 0.317965 4.90234L 0.303759 5.7378L 0.803687 5.7463ZM 4.09481 9.84296L 4.22676 10.3252L 4.19376 9.35285L 4.09481 9.84296ZM 2.24178 9.91356L 2.33618 9.42255L 1.50995 9.2637L 1.76538 10.0654L 2.24178 9.91356ZM 6.07484 12.7784L 6.38425 13.1711L 7.48438 12.3045L 6.08413 12.2784L 6.07484 12.7784ZM 0 14.4865L 0.0589239 13.99L -0.270866 14.9068L 0 14.4865ZM 17.9526 4.06959L 17.659 3.66488L 17.4412 3.82289L 17.4531 4.0917L 17.9526 4.06959ZM 20 1.93426L 20.4163 2.21114L 21.3711 0.775556L 19.7964 1.47759L 20 1.93426ZM 19.1914 -0.127772C 18.4349 0.325314 17.6365 0.63767 16.7448 0.81219L 16.939 1.79315C 17.9167 1.5976 18.8745 1.22351 19.7035 0.731121L 19.1914 -0.127772ZM 17.2074 0.961462C 16.3684 0.0628076 15.1714 -0.5 13.8469 -0.5L 13.8469 0.5C 14.8827 0.5 15.8185 0.939146 16.4764 1.64388L 17.2074 0.961462ZM 13.8469 -0.5C 11.3021 -0.5 9.24352 1.57331 9.24352 4.12489L 10.2435 4.12489C 10.2435 2.12062 11.8593 0.5 13.8469 0.5L 13.8469 -0.5ZM 9.24352 4.12489C 9.24434 4.47694 9.28711 4.84822 9.36264 5.17777L 10.3368 4.95208C 10.2725 4.67784 10.2427 4.41959 10.2435 4.12489L 9.24352 4.12489ZM 9.87493 4.56556C 6.61257 4.401 3.71899 2.83032 1.78072 0.440139L 1.00401 1.07C 3.1133 3.67106 6.26661 5.38482 9.82455 5.56429L 9.87493 4.56556ZM 0.959805 0.504294C 0.578991 1.16877 0.341655 2.00357 0.336827 2.82884L 1.33683 2.82884C 1.332 2.14221 1.49936 1.55983 1.82493 1.00584L 0.959805 0.504294ZM 0.336827 2.82884C 0.336827 4.43233 1.14908 5.84798 2.38335 6.6773L 2.94106 5.84727C 1.97335 5.19705 1.33683 4.08751 1.33683 2.82884L 0.336827 2.82884ZM 2.67811 5.76254C 2.06857 5.74716 1.55038 5.59421 1.04749 5.30977L 0.559889 6.18284C 1.1634 6.5163 1.91065 6.73461 2.6463 6.76203L 2.67811 5.76254ZM 0.303759 5.7378C 0.303423 5.7582 0.303322 5.77974 0.303321 5.79815L 1.30332 5.79815C 1.30332 5.78185 1.30337 5.76882 1.30361 5.7548L 0.303759 5.7378ZM 0.303321 5.79815C 0.303321 8.03762 1.88828 9.90757 3.99586 10.3331L 4.19376 9.35285C 2.54714 9.02041 1.30332 7.5559 1.30332 5.79815L 0.303321 5.79815ZM 3.96286 9.36068C 3.64987 9.44739 3.35348 9.48873 3.01379 9.48754L 3.01379 10.4875C 3.42248 10.4864 3.85106 10.4269 4.22676 10.3252L 3.96286 9.36068ZM 3.01379 9.48754C 2.77435 9.48817 2.56459 9.46698 2.33618 9.42255L 2.14738 10.4046C 2.42008 10.4565 2.72432 10.4869 3.01379 10.4875L 3.01379 9.48754ZM 1.76538 10.0654C 2.35047 11.9016 4.04886 13.2408 6.06554 13.2783L 6.08413 12.2784C 4.50976 12.2492 3.17746 11.2032 2.71818 9.76176L 1.76538 10.0654ZM 5.76543 12.3856C 4.42551 13.4488 2.81256 14.052 0.978821 14.0441L 0.978821 15.0441C 2.98999 15.0361 4.91543 14.3206 6.38425 13.1711L 5.76543 12.3856ZM 0.978821 14.0441C 0.662542 14.0443 0.365377 14.0265 0.0589239 13.99L -0.0589239 14.983C 0.276636 15.0226 0.63275 15.0438 0.978821 15.0441L 0.978821 14.0441ZM -0.270866 14.9068C 1.60317 16.1093 3.89636 16.8338 6.28992 16.8397L 6.28992 15.8397C 4.04907 15.8456 2.02871 15.2044 0.270866 14.0662L -0.270866 14.9068ZM 6.28992 16.8397C 14.1732 16.8397 18.4644 10.2666 18.4644 4.60322L 17.4644 4.60322C 17.4644 9.84188 13.5014 15.8397 6.28992 15.8397L 6.28992 16.8397ZM 18.4644 4.60322C 18.4644 4.41871 18.4601 4.22975 18.4521 4.04748L 17.4531 4.0917C 17.4607 4.26317 17.4645 4.43002 17.4644 4.60322L 18.4644 4.60322ZM 18.2462 4.4743C 19.0829 3.86478 19.8401 3.07403 20.4163 2.21114L 19.5837 1.65738C 19.0596 2.44892 18.4255 3.11124 17.659 3.66488L 18.2462 4.4743ZM 19.7964 1.47759C 19.6996 1.52073 19.7317 1.47554 19.8066 1.51796C 19.8637 1.55031 19.8429 1.57779 19.8172 1.47781C 19.7655 1.27658 19.785 0.890023 19.9239 0.4532L 18.971 0.150149C 18.8036 0.676522 18.7314 1.2703 18.8486 1.72658C 18.9074 1.95536 19.0362 2.23089 19.3137 2.38809C 19.6091 2.55536 19.9324 2.51183 20.2036 2.39093L 19.7964 1.47759Z"/>
</defs>
</svg>
