<svg width="63" height="52" viewBox="0 0 63 52" version="1.1" xmlns="http://www.w3.org/2000/svg" xmlns:xlink="http://www.w3.org/1999/xlink">
<title>Vector</title>
<desc>Created using Figma</desc>
<g id="Canvas" transform="translate(-997 3816)">
<g id="Vector">
<use xlink:href="#path0_fill" transform="translate(997 -3816)" fill="#E6E6E6"/>
</g>
</g>
<defs>
<path id="path0_fill" d="M 22.4831 51.704C 10.7941 51.704 1.24609 46.091 1.09009 45.997C 0.176093 45.446 -0.224905 44.33 0.126095 43.322C 0.480095 42.317 1.48009 41.681 2.55209 41.84C 8.88309 42.687 13.2921 40.692 15.6541 39.115C 9.80009 34.679 -3.30391 22.161 4.73509 3.601C 5.06609 2.836 5.79609 2.315 6.62509 2.25C 7.43709 2.194 8.2571 2.587 8.7021 3.29C 8.9421 3.665 14.5791 12.146 28.6681 13.922C 28.7001 6.24 34.9581 4.88281e-07 42.6431 4.88281e-07C 46.0711 4.88281e-07 49.3021 1.23 51.8601 3.489C 55.5571 3.096 58.4691 3.011 58.6041 3.006C 58.9091 3.009 59.1991 3.05 59.4621 3.15C 59.9571 2.968 60.5141 2.954 61.0501 3.153C 62.2101 3.592 62.7961 4.89 62.3571 6.05C 61.9261 7.193 59.8551 12.41 57.0371 15.079C 57.7401 21.568 56.1291 31.107 45.7251 41.821C 38.3711 49.392 29.9861 51.704 22.4831 51.704ZM 11.8691 45.71C 19.9341 48.118 32.3071 49.176 42.4961 38.688C 52.3281 28.562 53.3151 19.934 52.4131 14.482C 52.2641 13.574 52.6831 12.666 53.4711 12.188C 54.4851 11.579 55.7301 9.622 56.7521 7.6C 55.3871 7.682 53.4411 7.829 51.3321 8.078C 50.6411 8.148 49.9401 7.914 49.4511 7.407C 47.6381 5.532 45.2181 4.501 42.6421 4.501C 37.4181 4.501 33.1671 8.755 33.1671 13.981C 33.1671 14.664 33.2341 15.317 33.3721 15.92C 33.5241 16.611 33.3461 17.332 32.8891 17.871C 32.4291 18.41 31.7321 18.703 31.0401 18.659C 18.6181 17.909 11.2091 12.507 7.60009 8.912C 2.64909 26.411 19.7201 36.548 20.4961 36.999C 21.0791 37.336 21.4831 37.922 21.5921 38.587C 21.6971 39.255 21.5011 39.935 21.0531 40.441C 20.8691 40.653 17.7461 44.087 11.8691 45.71Z"/>
</defs>
</svg>
